<?xml version="1.0" standalone="no"?>
<!DOCTYPE svg PUBLIC "-//W3C//DTD SVG 20010904//EN"
 "http://www.w3.org/TR/2001/REC-SVG-20010904/DTD/svg10.dtd">
<svg version="1.0" xmlns="http://www.w3.org/2000/svg"
 width="1536.000000pt" height="1024.000000pt" viewBox="0 0 1536.000000 1024.000000"
 preserveAspectRatio="xMidYMid meet">
<metadata>
Created by potrace 1.16, written by Peter Selinger 2001-2019
</metadata>
<g transform="translate(0.000000,1024.000000) scale(0.100000,-0.100000)"
fill="#000000" stroke="none">
<path d="M6646 7476 c3 -8 -3 -20 -14 -27 -10 -8 -24 -24 -31 -37 -9 -18 -12
-529 -11 -2294 0 -2022 2 -2274 16 -2295 8 -13 12 -29 8 -35 -4 -6 -3 -8 3 -5
6 4 28 0 49 -9 36 -15 66 -14 108 2 15 6 17 4 11 -6 -6 -9 -4 -11 4 -6 7 5 10
10 7 13 -3 3 4 19 15 34 20 29 20 35 19 2305 0 1415 -4 2283 -10 2294 -5 9 -7
19 -5 22 2 2 -11 12 -30 23 -19 10 -35 22 -35 26 0 5 -6 7 -12 5 -37 -12 -78
-15 -73 -6 3 6 -1 10 -9 10 -9 0 -13 -6 -10 -14z m97 -17 c26 -7 44 -21 57
-42 20 -31 20 -71 20 -2305 l0 -2274 -29 -29 c-51 -51 -146 -36 -176 26 -13
30 -15 273 -15 2290 0 2495 -5 2301 63 2330 39 17 34 17 80 4z"/>
<path d="M7122 7007 c-12 -7 -30 -24 -40 -37 -16 -24 -17 -134 -20 -1843 -2
-1671 -1 -1821 14 -1853 21 -43 59 -64 119 -64 61 0 100 37 110 101 3 24 5
850 3 1834 -3 1953 1 1830 -59 1861 -34 17 -96 18 -127 1z m145 -32 l23 -26 0
-1835 0 -1836 -30 -30 c-28 -28 -35 -30 -82 -26 -40 4 -57 12 -75 32 l-23 27
0 1830 c0 1231 3 1837 10 1849 30 55 135 64 177 15z"/>
<path d="M6215 6919 c-17 -5 -42 -19 -55 -31 -14 -13 -28 -23 -31 -23 -4 0
-11 -4 -16 -9 -4 -5 -4 -7 2 -4 7 4 9 -563 7 -1695 -3 -1892 -7 -1768 62
-1801 65 -31 135 -14 171 41 18 26 18 100 16 1738 -1 1488 -4 1713 -17 1732
-29 45 -87 67 -139 52z m107 -38 l33 -29 3 -1705 c1 -1077 -1 -1715 -7 -1731
-21 -53 -107 -77 -166 -46 -53 28 -50 -61 -53 1743 -1 1164 1 1691 8 1718 21
78 121 105 182 50z"/>
<path d="M3454 6681 c-74 -34 -69 81 -69 -1551 0 -1267 2 -1468 15 -1490 8
-14 13 -29 11 -35 -1 -5 1 -7 5 -3 4 4 13 3 19 -2 24 -20 100 -23 133 -6 67
35 63 -77 64 1550 l1 1474 -22 30 c-13 19 -36 35 -59 42 -48 13 -50 13 -98 -9z
m137 -30 l29 -30 -2 -1486 -3 -1487 -28 -24 c-43 -37 -118 -34 -158 5 l-29 29
0 1474 c0 1161 3 1478 13 1498 16 33 52 50 105 50 35 0 49 -6 73 -29z"/>
<path d="M11773 6684 c-68 -30 -64 81 -64 -1542 -1 -932 3 -1476 9 -1492 15
-39 44 -59 94 -66 32 -4 54 -2 76 10 68 35 63 -78 62 1553 0 1464 -1 1476 -21
1504 -11 16 -36 33 -57 39 -46 12 -59 12 -99 -6z m134 -28 l28 -24 2 -1479 c2
-1165 0 -1483 -10 -1503 -7 -14 -29 -33 -51 -44 -32 -16 -44 -17 -76 -7 -22 6
-48 23 -59 38 -21 26 -21 28 -21 1494 0 907 4 1477 10 1493 21 56 126 75 177
32z"/>
<path d="M9453 6529 c-19 -5 -40 -23 -52 -43 -21 -33 -21 -35 -21 -1342 -1
-1263 0 -1309 18 -1334 10 -14 37 -35 58 -46 38 -20 42 -21 84 -5 23 9 52 29
64 44 l21 28 1 1292 c1 1097 -2 1298 -14 1332 -8 22 -14 47 -15 55 -1 8 -10
16 -22 16 -11 1 -36 4 -55 7 -19 4 -49 2 -67 -4z m127 -35 l25 -24 3 -1321 2
-1320 -29 -30 c-33 -32 -88 -39 -136 -17 -58 26 -55 -46 -55 1365 0 1203 1
1300 17 1323 42 62 122 73 173 24z"/>
<path d="M2994 6341 c-75 -34 -71 40 -68 -1205 2 -809 6 -1117 15 -1137 7 -17
27 -36 53 -48 84 -40 168 3 181 94 3 22 5 533 3 1135 -3 1042 -4 1097 -21
1124 -19 28 -71 56 -104 56 -10 0 -36 -9 -59 -19z m137 -30 l29 -29 0 -1137 0
-1137 -29 -29 c-23 -23 -38 -29 -71 -29 -47 0 -95 21 -110 49 -7 13 -10 391
-10 1143 1 913 3 1127 14 1147 18 33 53 50 104 51 35 0 49 -6 73 -29z"/>
<path d="M9921 6315 c-18 -6 -44 -23 -57 -39 l-24 -27 2 -1122 c2 -657 7
-1130 12 -1141 7 -14 6 -17 -2 -12 -8 5 -10 1 -5 -10 4 -11 8 -13 11 -6 3 9 9
9 23 1 11 -5 18 -13 15 -17 -2 -4 21 -7 53 -6 65 1 107 23 123 63 6 17 9 418
8 1135 -1 1180 0 1151 -47 1171 -43 18 -80 21 -112 10z m100 -15 c51 -28 49
15 49 -1180 l0 -1112 -29 -29 c-40 -39 -115 -42 -158 -5 l-28 24 -3 1122 -2
1122 34 34 c28 28 42 34 76 34 23 0 50 -5 61 -10z"/>
<path d="M7635 6283 c-43 -8 -76 -27 -95 -53 -20 -28 -20 -49 -20 -1107 0
-1050 1 -1079 20 -1110 24 -40 49 -54 103 -55 54 -1 82 14 107 55 19 31 20 60
20 1100 0 1121 0 1109 -42 1145 -21 17 -68 29 -93 25z m82 -37 l28 -24 5
-1069 c3 -587 2 -1084 -2 -1103 -16 -80 -116 -108 -180 -51 l-33 29 -3 1074
c-2 810 1 1080 10 1102 26 64 123 87 175 42z"/>
<path d="M5732 6266 c-13 -7 -32 -26 -43 -42 -18 -28 -19 -58 -19 -1109 0
-1048 1 -1081 19 -1116 13 -24 16 -40 10 -48 -6 -7 -5 -8 2 -2 6 5 26 3 47 -5
37 -13 64 -11 115 8 60 23 57 -33 57 1153 0 1175 2 1121 -52 1159 -27 19 -104
20 -136 2z m126 -12 c54 -38 52 15 52 -1149 0 -1169 2 -1117 -55 -1143 -48
-22 -103 -15 -136 17 l-29 29 0 1097 c0 730 3 1103 10 1115 24 45 114 65 158
34z"/>
<path d="M3924 6144 c-68 -33 -64 31 -64 -1019 0 -810 2 -950 15 -974 8 -16
11 -32 7 -36 -4 -5 -2 -5 5 -1 7 4 27 -1 44 -10 46 -24 104 -13 143 25 l31 31
3 955 c2 842 0 959 -13 985 -29 55 -107 76 -171 44z m116 -9 c63 -33 60 17 60
-1005 0 -995 1 -983 -48 -1009 -25 -14 -92 -14 -126 -1 -58 22 -56 -17 -56
1005 0 1034 -3 981 63 1010 42 19 71 18 107 0z"/>
<path d="M8979 6146 c-62 -35 -58 27 -59 -1005 -1 -1036 -4 -984 61 -1011 63
-27 133 -9 162 39 16 27 17 105 17 973 l0 944 -28 33 c-23 28 -36 34 -77 37
-32 3 -59 -1 -76 -10z m144 -36 l27 -31 -2 -950 -3 -951 -28 -24 c-51 -43
-156 -24 -177 32 -14 37 -13 1879 1 1905 34 65 132 75 182 19z"/>
<path d="M12237 6145 c-16 -8 -37 -25 -47 -37 -19 -22 -19 -56 -20 -988 0
-747 3 -970 13 -989 29 -57 117 -83 176 -52 55 30 52 -22 53 1029 0 910 -1
971 -17 996 -35 52 -103 70 -158 41z m136 -36 l27 -29 0 -971 0 -971 -29 -29
c-25 -24 -38 -29 -78 -29 -54 0 -86 21 -104 67 -5 14 -9 403 -9 964 0 782 2
945 14 973 16 38 26 46 70 57 46 11 78 2 109 -32z"/>
<path d="M11314 6096 c-18 -8 -35 -19 -38 -25 -4 -6 -11 -9 -16 -6 -5 3 -12 0
-16 -6 -5 -8 -3 -9 6 -4 10 6 12 4 7 -9 -4 -9 -7 -420 -7 -912 0 -879 0 -896
20 -923 26 -37 71 -55 122 -48 59 8 90 43 98 109 3 29 5 433 4 898 -1 763 -3
849 -18 878 -9 17 -25 36 -35 41 -34 19 -95 22 -127 7z m133 -30 l28 -24 3
-900 2 -900 -25 -31 c-46 -54 -130 -51 -175 7 -20 24 -20 45 -20 919 l0 895
29 29 c40 39 115 42 158 5z"/>
<path d="M4360 6041 l-35 -29 -3 -887 c-3 -981 -7 -914 61 -955 66 -41 150 -9
175 64 10 31 12 222 10 895 -3 823 -4 857 -22 888 -38 62 -127 73 -186 24z
m146 1 c12 -9 27 -27 33 -39 8 -15 11 -272 11 -897 l0 -874 -26 -31 c-22 -27
-32 -31 -76 -31 -60 0 -83 11 -103 50 -13 25 -15 142 -15 895 0 593 3 873 11
886 27 52 123 76 165 41z"/>
<path d="M10388 6060 c-43 -8 -64 -23 -84 -61 -22 -43 -21 -1666 1 -1709 22
-43 53 -60 111 -60 56 0 95 26 114 75 14 36 13 1627 0 1676 -17 62 -70 91
-142 79z m106 -40 c14 -17 28 -49 31 -73 3 -23 5 -400 3 -837 -3 -747 -4 -798
-21 -823 -25 -38 -62 -51 -116 -40 -31 5 -50 17 -65 36 -21 28 -21 34 -24 840
-2 557 0 824 8 849 15 52 52 78 110 78 41 0 52 -4 74 -30z"/>
<path d="M12715 5986 c-69 -30 -66 20 -65 -852 0 -522 3 -792 10 -804 23 -43
112 -66 158 -41 27 14 35 14 26 -1 -4 -7 -3 -8 5 -4 6 4 9 12 6 17 -4 5 -2 9
4 9 27 0 31 120 29 855 l-3 750 -23 32 c-14 20 -37 36 -60 43 -46 12 -50 12
-87 -4z m126 -35 l29 -29 0 -782 c0 -517 -3 -788 -10 -801 -27 -50 -121 -65
-167 -25 l-28 24 -3 792 -2 791 29 30 c24 24 38 29 76 29 38 0 52 -5 76 -29z"/>
<path d="M2508 5863 c-14 -9 -31 -27 -37 -40 -7 -14 -11 -250 -11 -683 -2
-630 -1 -662 17 -693 11 -17 30 -38 44 -44 53 -27 145 -7 169 36 6 13 10 251
10 696 l0 677 -34 34 c-29 29 -40 34 -82 34 -28 0 -61 -8 -76 -17z m132 -10
c16 -9 33 -27 39 -40 8 -16 11 -232 11 -688 l0 -664 -24 -28 c-22 -25 -31 -28
-81 -27 -52 0 -61 3 -86 32 l-29 32 0 668 c1 509 4 671 13 682 39 50 105 64
157 33z"/>
<path d="M10834 5864 c-67 -33 -64 -2 -64 -729 0 -727 -2 -705 64 -740 67 -36
163 5 181 78 3 12 4 317 3 678 -3 641 -3 657 -23 679 -45 49 -104 62 -161 34z
m139 -28 c16 -15 28 -39 32 -67 3 -24 5 -328 3 -676 l-3 -632 -28 -29 c-54
-57 -147 -47 -179 18 -17 32 -18 86 -18 683 0 556 2 652 15 677 20 39 41 49
101 50 40 0 57 -5 77 -24z"/>
<path d="M8034 5776 l-34 -34 0 -627 c0 -709 -4 -670 78 -702 39 -15 49 -15
85 -2 22 8 50 27 61 42 21 28 21 38 24 605 2 317 0 602 -3 631 -6 44 -14 62
-40 88 -29 29 -39 33 -85 33 -46 0 -56 -4 -86 -34z m161 0 l30 -24 3 -637 2
-636 -29 -30 c-25 -24 -38 -29 -78 -29 -52 0 -70 9 -97 50 -14 22 -16 85 -16
643 l0 619 34 34 c43 43 104 47 151 10z"/>
<path d="M13172 5790 c-18 -11 -37 -32 -42 -46 -6 -15 -10 -266 -10 -644 l0
-618 25 -31 c54 -64 151 -63 197 2 l23 32 2 565 c2 311 0 594 -3 630 -5 55
-11 69 -39 97 -27 27 -41 33 -76 33 -26 0 -57 -8 -77 -20z m144 -24 l34 -34 0
-616 c0 -531 -2 -621 -15 -646 -20 -38 -43 -50 -98 -50 -35 0 -50 6 -71 27
-14 14 -29 36 -32 47 -2 12 -3 296 -2 632 3 596 4 612 23 634 46 52 113 54
161 6z"/>
<path d="M5244 5736 l-34 -34 0 -546 c0 -585 0 -589 49 -616 27 -14 124 -13
143 3 49 40 48 23 48 609 l0 547 -35 36 c-31 31 -42 35 -86 35 -45 0 -55 -4
-85 -34z m145 8 c50 -36 51 -45 51 -604 0 -557 -1 -564 -49 -590 -25 -13 -97
-13 -122 0 -49 27 -49 32 -49 603 0 531 0 534 21 561 37 47 104 60 148 30z"/>
<path d="M13651 5673 c-74 -39 -71 -11 -72 -564 -1 -395 1 -501 12 -520 7 -13
12 -27 11 -31 -1 -5 5 -8 13 -8 8 0 13 -6 11 -12 -1 -7 -1 -10 1 -5 8 14 22 7
17 -8 -4 -8 -1 -15 6 -15 6 0 8 5 5 10 -4 6 12 10 40 10 25 0 58 6 73 14 57
30 57 25 57 560 l0 491 -25 40 c-14 22 -34 41 -45 43 -11 2 -31 6 -45 8 -14 3
-40 -3 -59 -13z m110 -13 c48 -26 49 -35 49 -564 l0 -495 -23 -27 c-18 -21
-35 -28 -75 -32 -49 -4 -54 -2 -87 31 l-35 35 0 494 c1 528 1 526 51 554 29
16 93 18 120 4z"/>
<path d="M1560 5630 c-11 -7 -12 -10 -2 -10 9 0 6 -10 -9 -32 l-23 -31 3 -440
c1 -267 6 -447 12 -460 27 -57 124 -80 181 -43 49 32 51 57 51 512 -1 374 -3
424 -18 453 -27 54 -99 73 -169 45 -14 -5 -17 -4 -12 4 9 14 6 15 -14 2z m135
-14 c65 -28 65 -27 65 -501 0 -454 -1 -469 -49 -495 -25 -13 -82 -13 -115 0
-55 20 -56 31 -56 497 0 407 1 430 20 460 12 20 32 36 52 42 45 13 44 13 83
-3z"/>
<path d="M2044 5621 c-54 -33 -55 -37 -52 -525 l3 -448 33 -29 c26 -24 41 -29
82 -29 65 0 96 13 115 49 13 26 15 92 15 466 0 481 -1 490 -61 520 -39 20 -98
19 -135 -4z m126 -4 c14 -7 33 -28 42 -47 16 -32 18 -76 18 -463 0 -382 -2
-432 -17 -457 -34 -58 -122 -69 -175 -21 l-33 29 -3 444 c-2 487 -3 480 58
510 41 21 75 23 110 5z"/>
<path d="M8545 5553 c-38 -8 -67 -27 -81 -55 -11 -22 -14 -95 -14 -380 l0
-354 28 -33 c55 -67 174 -47 208 34 20 50 21 670 0 720 -21 50 -84 81 -141 68z
m106 -42 l29 -29 0 -351 c0 -235 -4 -358 -11 -374 -26 -57 -131 -70 -178 -22
l-26 25 -3 361 -3 360 30 29 c25 26 37 30 81 30 44 0 56 -4 81 -29z"/>
<path d="M4861 5537 c-13 -6 -34 -25 -45 -40 -20 -27 -21 -42 -24 -340 -2
-172 0 -331 3 -355 4 -26 17 -55 34 -74 58 -65 179 -41 208 42 14 42 16 634 2
692 -18 73 -108 111 -178 75z m135 -31 l34 -34 0 -352 0 -352 -29 -29 c-25
-25 -37 -29 -84 -29 -49 0 -58 3 -81 31 l-26 31 0 347 c0 341 0 349 21 375 45
57 115 62 165 12z"/>
</g>
</svg>
